<?xml version="1.0" encoding="UTF-8" standalone="no"?>
<svg width="128px" height="128px" viewBox="0 0 128 128" version="1.1" xmlns="http://www.w3.org/2000/svg" xmlns:xlink="http://www.w3.org/1999/xlink" >
    <title>Hugh</title>
    <desc>Democratizing coloring</desc>
    <defs></defs>
    <g id="Page-1" stroke="none" stroke-width="1" fill="none" fill-rule="evenodd">
        <g id="icon">
            <rect id="Rectangle-136" fill="#323043" x="0" y="0" width="128" height="128"></rect>
            <rect id="Rectangle-1" stroke="#5F5E6A" stroke-width="6" fill="#FFFFFF" x="96" y="56" width="16" height="16"></rect>
            <rect id="Rectangle-1" stroke="#5F5E6A" stroke-width="6" fill="#FFFFFF" x="96" y="76" width="16" height="16"></rect>
            <rect id="Rectangle-1" stroke="#5F5E6A" stroke-width="6" fill="#FFFFFF" x="96" y="36" width="16" height="16"></rect>
            <rect id="Rectangle-1" stroke="#5F5E6A" stroke-width="6" fill="#FFFFFF" x="16" y="56" width="16" height="16"></rect>
            <rect id="Rectangle-1" stroke="#5F5E6A" stroke-width="6" fill="#FFFFFF" x="16" y="76" width="16" height="16"></rect>
            <rect id="Rectangle-1" stroke="#5F5E6A" stroke-width="6" fill="#FFFFFF" x="56" y="76" width="16" height="16"></rect>
            <rect id="Rectangle-1" stroke="#5F5E6A" stroke-width="6" fill="#FFFFFF" x="16" y="36" width="16" height="16"></rect>
            <rect id="Rectangle-1" stroke="#5F5E6A" stroke-width="6" fill="#FFFFFF" x="56" y="36" width="16" height="16"></rect>
            <rect id="Rectangle-1" stroke="#5F5E6A" stroke-width="6" fill="#FFFFFF" x="56" y="16" width="16" height="16"></rect>
            <rect id="Rectangle-1" stroke="#FFC68D" stroke-width="6" fill="#000000" x="16" y="16" width="16" height="16"></rect>
            <rect id="Rectangle-1" stroke="#5F5E6A" stroke-width="6" fill="#FFFFFF" x="56" y="96" width="16" height="16"></rect>
            <rect id="Rectangle-1" stroke="#FFC68D" stroke-width="6" fill="#000000" x="96" y="96" width="16" height="16"></rect>
            <rect id="Rectangle-1" stroke="#FFC68D" stroke-width="6" fill="#000000" x="16" y="96" width="16" height="16"></rect>
            <rect id="Rectangle-1" stroke="#F0FF8D" stroke-width="6" fill="#000000" x="76" y="96" width="16" height="16"></rect>
            <rect id="Rectangle-1" stroke="#F0FF8D" stroke-width="6" fill="#000000" x="36" y="96" width="16" height="16"></rect>
            <rect id="Rectangle-1" stroke="#FFC68D" stroke-width="6" fill="#000000" x="96" y="16" width="16" height="16"></rect>
            <rect id="Rectangle-1" stroke="#9EFF8D" stroke-width="6" fill="#000000" x="76" y="76" width="16" height="16"></rect>
            <rect id="Rectangle-1" stroke="#9EFF8D" stroke-width="6" fill="#000000" x="36" y="76" width="16" height="16"></rect>
            <rect id="Rectangle-1" stroke="#F7C7F8" stroke-width="6" fill="#000000" x="56" y="56" width="16" height="16"></rect>
            <rect id="Rectangle-1" stroke="#8DFFCE" stroke-width="6" fill="#000000" x="76" y="56" width="16" height="16"></rect>
            <rect id="Rectangle-1" stroke="#8DFFCE" stroke-width="6" fill="#000000" x="36" y="56" width="16" height="16"></rect>
            <rect id="Rectangle-1" stroke="#9EFF8D" stroke-width="6" fill="#000000" x="76" y="36" width="16" height="16"></rect>
            <rect id="Rectangle-1" stroke="#9EFF8D" stroke-width="6" fill="#000000" x="36" y="36" width="16" height="16"></rect>
            <rect id="Rectangle-1" stroke="#F0FF8D" stroke-width="6" fill="#000000" x="76" y="16" width="16" height="16"></rect>
            <rect id="Rectangle-1" stroke="#F0FF8D" stroke-width="6" fill="#000000" x="36" y="16" width="16" height="16"></rect>
        </g>
    </g>
</svg>
