<svg xmlns="http://www.w3.org/2000/svg" viewBox="0 0 1544 500" width="1544" height="500">
  <defs>
    <linearGradient id="bg" x1="0" y1="0" x2="1" y2="1">
      <stop offset="0" stop-color="#eaf3fd"></stop><stop offset="0.55" stop-color="#d6e9fb"></stop><stop offset="1" stop-color="#c3ddf6"></stop>
    </linearGradient>
    <clipPath id="clip"><rect x="0" y="0" width="1544" height="500" rx="28"></rect></clipPath>
    
  <linearGradient id="ig" x1="0" y1="0" x2="1" y2="1">
    <stop offset="0" stop-color="#f4f9ff"></stop><stop offset="1" stop-color="#dcebfb"></stop>
  </linearGradient>
  <filter id="sh" x="-30%" y="-30%" width="160%" height="160%">
    <feDropShadow dx="0" dy="3" stdDeviation="4" flood-color="rgba(6,30,55,0.28)"></feDropShadow>
  </filter>
  </defs>
  <g clip-path="url(#clip)">
    <rect x="0" y="0" width="1544" height="500" fill="url(#bg)"></rect>
    <circle cx="1384" cy="160" r="300" fill="#2271b1" opacity="0.06"></circle>
    <circle cx="600" cy="460" r="220" fill="#2271b1" opacity="0.05"></circle>
  </g>
  <g transform="translate(112,70) scale(1.8)" filter="url(#sh)">
  <circle cx="100" cy="100" r="72" fill="none" stroke="#2271b1" stroke-width="40"></circle>
  <path d="M166.5 127.6 A72 72 0 0 1 127.6 166.5" fill="none" stroke="#ffffff" stroke-width="40"></path>
  <path d="M72.4 166.5 A72 72 0 0 1 33.5 127.6" fill="none" stroke="#ffffff" stroke-width="40"></path>
  <path d="M33.5 72.4 A72 72 0 0 1 72.4 33.5" fill="none" stroke="#ffffff" stroke-width="40"></path>
  <path d="M127.6 33.5 A72 72 0 0 1 166.5 72.4" fill="none" stroke="#ffffff" stroke-width="40"></path>
  <circle cx="100" cy="100" r="92" fill="none" stroke="#0b3a63" stroke-width="3"></circle>
  <circle cx="100" cy="100" r="52" fill="none" stroke="#0b3a63" stroke-width="3"></circle>
  <g stroke="#0b3a63" stroke-width="4" stroke-linecap="round" opacity="0.55">
    <line x1="100" y1="55" x2="100" y2="70"></line><line x1="100" y1="130" x2="100" y2="145"></line>
    <line x1="55" y1="100" x2="70" y2="100"></line><line x1="130" y1="100" x2="145" y2="100"></line>
  </g></g>
  <path d="M599.0 206.1L599.0 206.1Q591.6 206.1 585.3 203.4Q579.0 200.8 574.2 196.0Q569.4 191.2 566.7 184.8Q564.0 178.3 564.0 170.7L564.0 170.7Q564.0 163.0 566.6 156.6Q569.2 150.1 573.9 145.3Q578.6 140.6 584.9 138.0Q591.2 135.4 598.6 135.4L598.6 135.4Q606.1 135.4 612.0 137.8Q618.0 140.3 622.1 144.5Q626.2 148.6 628.0 153.7L628.0 153.7L615.4 159.7Q613.6 154.8 609.3 151.5Q604.9 148.2 598.6 148.2L598.6 148.2Q592.6 148.2 588.0 151.1Q583.4 153.9 580.8 159.0Q578.3 164.0 578.3 170.7L578.3 170.7Q578.3 177.4 581.0 182.5Q583.6 187.5 588.3 190.4Q592.9 193.2 599.0 193.2L599.0 193.2Q603.7 193.2 607.8 191.4Q611.9 189.6 614.4 186.2Q616.9 182.8 616.9 178.0L616.9 178.0L616.9 172.3L623.5 177.9L598.6 177.9L598.6 165.9L631.2 165.9L631.2 173.2Q631.2 181.5 628.4 187.8Q625.7 194.0 621.0 198.1Q616.4 202.1 610.6 204.1Q604.9 206.1 599.0 206.1ZM665.0 206.1L665.0 206.1Q658.5 206.1 652.9 203.8Q647.2 201.4 643.1 197.1Q639.0 192.8 637.0 186.9L637.0 186.9L648.7 181.6Q651.3 187.2 655.8 190.5Q660.4 193.7 665.9 193.7L665.9 193.7Q668.8 193.7 671.0 192.8Q673.1 191.8 674.3 190.2Q675.5 188.6 675.5 186.4L675.5 186.4Q675.5 184.0 674.0 182.3Q672.5 180.6 669.4 179.6L669.4 179.6L656.0 175.2Q647.8 172.5 643.6 167.6Q639.5 162.7 639.5 155.8L639.5 155.8Q639.5 149.7 642.5 145.1Q645.5 140.5 650.8 137.9Q656.2 135.4 663.2 135.4L663.2 135.4Q669.4 135.4 674.6 137.5Q679.9 139.6 683.7 143.5Q687.5 147.3 689.4 152.7L689.4 152.7L677.9 158.0Q675.9 153.2 672.1 150.5Q668.2 147.8 663.2 147.8L663.2 147.8Q660.4 147.8 658.2 148.7Q656.0 149.6 654.8 151.3Q653.6 153.0 653.6 155.2L653.6 155.2Q653.6 157.6 655.1 159.4Q656.7 161.2 659.8 162.2L659.8 162.2L673.0 166.5Q681.3 169.1 685.3 173.9Q689.4 178.7 689.4 185.6L689.4 185.6Q689.4 191.6 686.3 196.2Q683.2 200.9 677.7 203.5Q672.2 206.1 665.0 206.1ZM741.1 206.1L741.1 206.1Q734.6 206.1 729.0 203.8Q723.3 201.4 719.2 197.1Q715.1 192.8 713.1 186.9L713.1 186.9L724.8 181.6Q727.3 187.2 731.9 190.5Q736.5 193.7 742.0 193.7L742.0 193.7Q744.9 193.7 747.0 192.8Q749.2 191.8 750.3 190.2Q751.5 188.6 751.5 186.4L751.5 186.4Q751.5 184.0 750.1 182.3Q748.6 180.6 745.5 179.6L745.5 179.6L732.0 175.2Q723.9 172.5 719.7 167.6Q715.6 162.7 715.6 155.8L715.6 155.8Q715.6 149.7 718.6 145.1Q721.6 140.5 726.9 137.9Q732.3 135.4 739.3 135.4L739.3 135.4Q745.5 135.4 750.7 137.5Q756.0 139.6 759.8 143.5Q763.6 147.3 765.5 152.7L765.5 152.7L753.9 158.0Q752.0 153.2 748.1 150.5Q744.3 147.8 739.3 147.8L739.3 147.8Q736.5 147.8 734.2 148.7Q732.0 149.6 730.8 151.3Q729.6 153.0 729.6 155.2L729.6 155.2Q729.6 157.6 731.2 159.4Q732.8 161.2 735.9 162.2L735.9 162.2L749.1 166.5Q757.3 169.1 761.4 173.9Q765.5 178.7 765.5 185.6L765.5 185.6Q765.5 191.6 762.4 196.2Q759.3 200.9 753.8 203.5Q748.3 206.1 741.1 206.1ZM792.7 206.1L792.7 206.1Q786.6 206.1 782.3 203.5Q778.0 200.9 775.8 196.2Q773.6 191.5 773.6 185.2L773.6 185.2L773.6 154.8L787.4 154.8L787.4 184.1Q787.4 187.0 788.6 189.1Q789.7 191.3 791.8 192.5Q794.0 193.7 796.6 193.7L796.6 193.7Q799.4 193.7 801.5 192.5Q803.5 191.3 804.7 189.1Q805.8 187.0 805.8 184.1L805.8 184.1L805.8 154.8L819.6 154.8L819.6 205L806.7 205L806.7 195.1L807.5 197.3Q805.7 201.8 801.8 203.9Q797.9 206.1 792.7 206.1ZM843.5 223.4L829.7 223.4L829.7 154.8L842.6 154.8L842.6 164.3L841.4 161.6Q843.9 157.8 848.2 155.7Q852.5 153.7 858.0 153.7L858.0 153.7Q865.2 153.7 871.0 157.2Q876.8 160.7 880.2 166.6Q883.6 172.5 883.6 179.9L883.6 179.9Q883.6 187.2 880.2 193.1Q876.8 199.1 871.1 202.6Q865.3 206.1 857.9 206.1L857.9 206.1Q852.7 206.1 848.4 204.2Q844.0 202.3 841.3 198.7L841.3 198.7L843.5 195.8L843.5 223.4ZM856.2 193.7L856.2 193.7Q860.1 193.7 863.0 191.9Q866.0 190.2 867.6 187.1Q869.3 183.9 869.3 179.9L869.3 179.9Q869.3 175.8 867.6 172.8Q866.0 169.7 863.0 167.9Q860.1 166.1 856.2 166.1L856.2 166.1Q852.6 166.1 849.7 167.8Q846.8 169.6 845.2 172.7Q843.5 175.8 843.5 179.9L843.5 179.9Q843.5 183.9 845.2 187.1Q846.8 190.2 849.7 191.9Q852.6 193.7 856.2 193.7ZM905.5 223.4L891.7 223.4L891.7 154.8L904.5 154.8L904.5 164.3L903.3 161.6Q905.8 157.8 910.1 155.7Q914.4 153.7 919.9 153.7L919.9 153.7Q927.1 153.7 932.9 157.2Q938.7 160.7 942.1 166.6Q945.5 172.5 945.5 179.9L945.5 179.9Q945.5 187.2 942.1 193.1Q938.8 199.1 933.0 202.6Q927.2 206.1 919.8 206.1L919.8 206.1Q914.7 206.1 910.3 204.2Q905.9 202.3 903.3 198.7L903.3 198.7L905.5 195.8L905.5 223.4ZM918.2 193.7L918.2 193.7Q922.0 193.7 925.0 191.9Q927.9 190.2 929.6 187.1Q931.2 183.9 931.2 179.9L931.2 179.9Q931.2 175.8 929.6 172.8Q927.9 169.7 925.0 167.9Q922.0 166.1 918.2 166.1L918.2 166.1Q914.5 166.1 911.6 167.8Q908.7 169.6 907.1 172.7Q905.5 175.8 905.5 179.9L905.5 179.9Q905.5 183.9 907.1 187.1Q908.7 190.2 911.6 191.9Q914.5 193.7 918.2 193.7ZM978.5 206.1L978.5 206.1Q971.1 206.1 964.9 202.7Q958.8 199.3 955.2 193.4Q951.6 187.4 951.6 179.9L951.6 179.9Q951.6 172.2 955.2 166.4Q958.8 160.5 964.9 157.1Q971.1 153.7 978.5 153.7L978.5 153.7Q986.0 153.7 992.0 157.1Q998.1 160.5 1001.7 166.4Q1005.4 172.2 1005.4 179.9L1005.4 179.9Q1005.4 187.4 1001.7 193.4Q998.1 199.3 992.0 202.7Q986.0 206.1 978.5 206.1ZM978.5 193.7L978.5 193.7Q982.3 193.7 985.1 191.9Q987.9 190.2 989.5 187.1Q991.1 183.9 991.1 179.9L991.1 179.9Q991.1 175.8 989.5 172.8Q987.9 169.7 985.1 167.9Q982.3 166.1 978.5 166.1L978.5 166.1Q974.7 166.1 971.9 167.9Q969.0 169.7 967.4 172.8Q965.8 175.8 965.8 179.9L965.8 179.9Q965.8 183.9 967.4 187.1Q969.0 190.2 971.9 191.9Q974.7 193.7 978.5 193.7ZM1027.3 205L1013.5 205L1013.5 154.8L1026.3 154.8L1026.3 166.8L1025.4 165.1Q1027.1 158.7 1030.9 156.5Q1034.7 154.2 1040.0 154.2L1040.0 154.2L1042.9 154.2L1042.9 166.2L1038.6 166.2Q1033.5 166.2 1030.4 169.3Q1027.3 172.3 1027.3 178.0L1027.3 178.0L1027.3 205ZM1075.0 205.6L1075.0 205.6Q1065.9 205.6 1060.9 200.6Q1055.9 195.7 1055.9 186.9L1055.9 186.9L1055.9 166.7L1047.4 166.7L1047.4 154.8L1047.9 154.8Q1051.7 154.8 1053.8 152.8Q1055.9 150.9 1055.9 147.0L1055.9 147.0L1055.9 143.4L1069.7 143.4L1069.7 154.8L1081.5 154.8L1081.5 166.7L1069.7 166.7L1069.7 186.0Q1069.7 188.5 1070.6 190.2Q1071.5 191.9 1073.5 192.8Q1075.4 193.6 1078.2 193.6L1078.2 193.6Q1078.9 193.6 1079.7 193.5Q1080.5 193.4 1081.5 193.3L1081.5 193.3L1081.5 205Q1080.1 205.2 1078.3 205.4Q1076.6 205.6 1075.0 205.6ZM1121.4 205L1107.1 205L1107.1 136.5L1154.0 136.5L1154.0 148.9L1121.4 148.9L1121.4 166.3L1149.4 166.3L1149.4 178.7L1121.4 178.7L1121.4 205ZM1183.4 206.1L1183.4 206.1Q1175.4 206.1 1169.5 202.6Q1163.6 199.0 1160.4 193.0Q1157.2 187.1 1157.2 179.8L1157.2 179.8Q1157.2 172.2 1160.5 166.4Q1163.9 160.5 1169.6 157.1Q1175.3 153.7 1182.5 153.7L1182.5 153.7Q1188.5 153.7 1193.1 155.6Q1197.7 157.4 1200.8 160.8Q1204.0 164.2 1205.7 168.7Q1207.3 173.2 1207.3 178.4L1207.3 178.4Q1207.3 179.9 1207.2 181.3Q1207.0 182.7 1206.7 183.7L1206.7 183.7L1169.0 183.7L1169.0 173.6L1198.8 173.6L1192.3 178.4Q1193.2 174.5 1192.2 171.4Q1191.2 168.3 1188.7 166.5Q1186.2 164.7 1182.5 164.7L1182.5 164.7Q1178.9 164.7 1176.3 166.5Q1173.7 168.2 1172.4 171.6Q1171.2 175.0 1171.4 179.9L1171.4 179.9Q1171.1 184.1 1172.4 187.3Q1173.8 190.6 1176.7 192.3Q1179.5 194.1 1183.6 194.1L1183.6 194.1Q1187.3 194.1 1189.9 192.7Q1192.5 191.2 1194.0 188.6L1194.0 188.6L1205.0 193.9Q1203.5 197.5 1200.4 200.3Q1197.2 203.1 1192.9 204.6Q1188.5 206.1 1183.4 206.1ZM1239.6 206.1L1239.6 206.1Q1231.6 206.1 1225.7 202.6Q1219.8 199.0 1216.6 193.0Q1213.4 187.1 1213.4 179.8L1213.4 179.8Q1213.4 172.2 1216.7 166.4Q1220.1 160.5 1225.8 157.1Q1231.5 153.7 1238.7 153.7L1238.7 153.7Q1244.7 153.7 1249.3 155.6Q1253.9 157.4 1257.0 160.8Q1260.2 164.2 1261.9 168.7Q1263.5 173.2 1263.5 178.4L1263.5 178.4Q1263.5 179.9 1263.4 181.3Q1263.2 182.7 1262.9 183.7L1262.9 183.7L1225.3 183.7L1225.3 173.6L1255.1 173.6L1248.5 178.4Q1249.4 174.5 1248.4 171.4Q1247.4 168.3 1244.9 166.5Q1242.4 164.7 1238.7 164.7L1238.7 164.7Q1235.1 164.7 1232.5 166.5Q1229.9 168.2 1228.7 171.6Q1227.4 175.0 1227.6 179.9L1227.6 179.9Q1227.3 184.1 1228.7 187.3Q1230.0 190.6 1232.9 192.3Q1235.7 194.1 1239.8 194.1L1239.8 194.1Q1243.5 194.1 1246.1 192.7Q1248.7 191.2 1250.2 188.6L1250.2 188.6L1261.2 193.9Q1259.8 197.5 1256.6 200.3Q1253.4 203.1 1249.1 204.6Q1244.8 206.1 1239.6 206.1ZM1295.3 206.1L1295.3 206.1Q1287.9 206.1 1282.1 202.6Q1276.3 199.1 1273.0 193.1Q1269.6 187.2 1269.6 179.9L1269.6 179.9Q1269.6 172.5 1273.0 166.6Q1276.4 160.7 1282.2 157.2Q1288.0 153.7 1295.2 153.7L1295.2 153.7Q1300.7 153.7 1305.0 155.7Q1309.2 157.8 1311.7 161.6L1311.7 161.6L1309.6 164.3L1309.6 135.4L1323.4 135.4L1323.4 205L1310.5 205L1310.5 195.8L1311.8 198.7Q1309.2 202.3 1304.8 204.2Q1300.4 206.1 1295.3 206.1ZM1296.9 193.7L1296.9 193.7Q1300.7 193.7 1303.5 191.9Q1306.4 190.2 1308.0 187.1Q1309.6 183.9 1309.6 179.9L1309.6 179.9Q1309.6 175.8 1308.0 172.7Q1306.4 169.6 1303.5 167.8Q1300.7 166.1 1296.9 166.1L1296.9 166.1Q1293.1 166.1 1290.2 167.9Q1287.2 169.7 1285.5 172.8Q1283.9 175.8 1283.9 179.9L1283.9 179.9Q1283.9 183.9 1285.5 187.1Q1287.2 190.2 1290.2 191.9Q1293.1 193.7 1296.9 193.7Z" fill="#0f3a66"></path>
  <rect x="560" y="232" width="112" height="8" rx="4" fill="#2271b1"></rect>
  <path d="M573.0 276.2L564.8 300L560.2 300L570.6 270.9L575.7 270.9L586.2 300L581.5 300L573.3 276.2L573.0 276.2ZM565.6 292.3L565.6 288.6L580.7 288.6L580.7 292.3L565.6 292.3ZM588.3 270.9L592.5 270.9L592.5 300L588.3 300L588.3 270.9ZM596.6 270.9L600.8 270.9L600.8 300L596.6 300L596.6 270.9ZM616.4 308.2L616.4 308.2Q615.5 308.2 614.7 308.0Q613.9 307.9 613.5 307.7L613.5 307.7L614.6 304.2L614.9 304.3Q616.5 304.7 617.6 304.3Q618.7 303.8 619.5 301.7L619.5 301.7L620.0 300.3L612.1 278.2L616.6 278.2L622.1 295.1L622.3 295.1L627.9 278.2L632.4 278.2L623.4 302.9Q622.8 304.6 621.9 305.8Q620.9 307.0 619.6 307.6Q618.2 308.2 616.4 308.2ZM643.9 300.4L643.9 300.4Q640.9 300.4 638.6 299.0Q636.3 297.6 635.0 295.1Q633.8 292.6 633.8 289.2L633.8 289.2Q633.8 285.8 635.0 283.3Q636.3 280.7 638.6 279.3Q640.9 277.9 643.9 277.9L643.9 277.9Q647.0 277.9 649.3 279.3Q651.6 280.7 652.9 283.3Q654.1 285.8 654.1 289.2L654.1 289.2Q654.1 292.6 652.9 295.1Q651.6 297.6 649.3 299.0Q647.0 300.4 643.9 300.4ZM643.9 296.9L643.9 296.9Q645.9 296.9 647.2 295.8Q648.6 294.8 649.2 293.0Q649.8 291.3 649.8 289.2L649.8 289.2Q649.8 287.1 649.2 285.3Q648.6 283.6 647.2 282.5Q645.9 281.5 643.9 281.5L643.9 281.5Q641.9 281.5 640.6 282.5Q639.3 283.6 638.7 285.3Q638.0 287.1 638.0 289.2L638.0 289.2Q638.0 291.3 638.7 293.0Q639.3 294.8 640.6 295.8Q641.9 296.9 643.9 296.9ZM671.0 291.0L671.0 291.0L671.0 278.2L675.2 278.2L675.2 300L671.1 300L671.1 296.2L670.8 296.2Q670.1 297.9 668.4 299.1Q666.8 300.3 664.3 300.3L664.3 300.3Q662.2 300.3 660.6 299.4Q659.0 298.4 658.1 296.6Q657.2 294.8 657.2 292.1L657.2 292.1L657.2 278.2L661.4 278.2L661.4 291.6Q661.4 293.8 662.6 295.1Q663.9 296.4 665.9 296.4L665.9 296.4Q667.1 296.4 668.2 295.8Q669.4 295.2 670.2 294.0Q671.0 292.8 671.0 291.0ZM683.5 300L679.3 300L679.3 278.2L683.4 278.2L683.4 281.7L683.6 281.7Q684.2 279.9 685.7 278.9Q687.2 277.9 689.1 277.9L689.1 277.9Q689.5 277.9 690.1 277.9Q690.6 277.9 690.9 277.9L690.9 277.9L690.9 282.0Q690.7 281.9 690.0 281.9Q689.4 281.8 688.7 281.8L688.7 281.8Q687.2 281.8 686.0 282.4Q684.8 283.0 684.2 284.2Q683.5 285.3 683.5 286.7L683.5 286.7L683.5 300ZM706.1 308.2L701.9 308.2L701.9 278.2L706.0 278.2L706.0 281.7L706.3 281.7Q706.7 281.0 707.4 280.1Q708.1 279.2 709.4 278.6Q710.6 277.9 712.6 277.9L712.6 277.9Q715.3 277.9 717.3 279.2Q719.4 280.5 720.6 283.1Q721.8 285.6 721.8 289.1L721.8 289.1Q721.8 292.7 720.6 295.2Q719.4 297.7 717.4 299.1Q715.3 300.4 712.6 300.4L712.6 300.4Q710.7 300.4 709.4 299.8Q708.1 299.1 707.4 298.2Q706.7 297.3 706.3 296.6L706.3 296.6L706.1 296.6L706.1 308.2ZM711.7 296.8L711.7 296.8Q713.6 296.8 714.9 295.8Q716.2 294.8 716.8 293.0Q717.5 291.3 717.5 289.1L717.5 289.1Q717.5 286.9 716.8 285.2Q716.2 283.5 714.9 282.5Q713.6 281.5 711.7 281.5L711.7 281.5Q709.9 281.5 708.6 282.5Q707.3 283.4 706.7 285.1Q706.0 286.8 706.0 289.1L706.0 289.1Q706.0 291.4 706.7 293.1Q707.3 294.9 708.6 295.8Q709.9 296.8 711.7 296.8ZM724.8 270.9L729.0 270.9L729.0 300L724.8 300L724.8 270.9ZM746.9 291.0L746.9 291.0L746.9 278.2L751.2 278.2L751.2 300L747.0 300L747.0 296.2L746.8 296.2Q746.0 297.9 744.4 299.1Q742.7 300.3 740.3 300.3L740.3 300.3Q738.1 300.3 736.5 299.4Q734.9 298.4 734.0 296.6Q733.1 294.8 733.1 292.1L733.1 292.1L733.1 278.2L737.3 278.2L737.3 291.6Q737.3 293.8 738.6 295.1Q739.8 296.4 741.8 296.4L741.8 296.4Q743.0 296.4 744.2 295.8Q745.4 295.2 746.1 294.0Q746.9 292.8 746.9 291.0ZM764.3 308.6L764.3 308.6Q760.4 308.6 758.2 307.2Q755.9 305.7 755.1 303.7L755.1 303.7L758.7 302.2Q759.1 302.8 759.7 303.5Q760.4 304.2 761.5 304.7Q762.6 305.2 764.4 305.2L764.4 305.2Q766.8 305.2 768.4 304.0Q769.9 302.9 769.9 300.3L769.9 300.3L769.9 296.0L769.6 296.0Q769.3 296.7 768.6 297.6Q767.9 298.4 766.6 299.0Q765.4 299.7 763.3 299.7L763.3 299.7Q760.8 299.7 758.7 298.4Q756.6 297.2 755.4 294.9Q754.2 292.5 754.2 289.0L754.2 289.0Q754.2 285.5 755.4 283.0Q756.6 280.5 758.7 279.2Q760.7 277.9 763.4 277.9L763.4 277.9Q765.4 277.9 766.7 278.6Q767.9 279.2 768.6 280.1Q769.3 281.0 769.7 281.7L769.7 281.7L770.0 281.7L770.0 278.2L774.2 278.2L774.2 300.5Q774.2 303.3 772.9 305.1Q771.6 306.9 769.3 307.8Q767.1 308.6 764.3 308.6ZM764.3 296.1L764.3 296.1Q767.0 296.1 768.5 294.2Q770.0 292.3 770.0 288.9L770.0 288.9Q770.0 286.7 769.3 285.1Q768.7 283.4 767.4 282.5Q766.2 281.5 764.3 281.5L764.3 281.5Q762.4 281.5 761.1 282.5Q759.8 283.5 759.2 285.2Q758.5 286.9 758.5 288.9L758.5 288.9Q758.5 291.1 759.2 292.7Q759.8 294.3 761.1 295.2Q762.4 296.1 764.3 296.1ZM782.4 300L778.2 300L778.2 278.2L782.4 278.2L782.4 300ZM780.3 274.8L780.3 274.8Q779.2 274.8 778.4 274.1Q777.7 273.3 777.7 272.3L777.7 272.3Q777.7 271.2 778.4 270.5Q779.2 269.7 780.3 269.7L780.3 269.7Q781.4 269.7 782.2 270.5Q783.0 271.2 783.0 272.3L783.0 272.3Q783.0 273.3 782.2 274.1Q781.4 274.8 780.3 274.8ZM790.7 287.1L790.7 287.1L790.7 300L786.5 300L786.5 278.2L790.6 278.2L790.6 281.8L790.9 281.8Q791.6 280.0 793.2 278.9Q794.8 277.9 797.3 277.9L797.3 277.9Q799.5 277.9 801.2 278.8Q802.8 279.7 803.8 281.6Q804.7 283.4 804.7 286.1L804.7 286.1L804.7 300L800.5 300L800.5 286.6Q800.5 284.3 799.2 282.9Q798.0 281.6 795.8 281.6L795.8 281.6Q794.4 281.6 793.2 282.2Q792.0 282.9 791.4 284.1Q790.7 285.3 790.7 287.1ZM826.1 300.4L826.1 300.4Q823.2 300.4 821.0 299.3Q818.9 298.3 817.8 296.4Q816.6 294.6 816.6 292.3L816.6 292.3Q816.6 290.5 817.4 289.1Q818.2 287.8 819.5 286.6Q820.8 285.4 822.5 284.2L822.5 284.2L827.2 280.9Q828.4 280.0 829.1 279.2Q829.7 278.4 829.7 277.1L829.7 277.1Q829.7 276.0 828.8 275.1Q828.0 274.1 826.5 274.1L826.5 274.1Q825.5 274.1 824.7 274.6Q823.9 275.1 823.5 275.9Q823.0 276.7 823.0 277.5L823.0 277.5Q823.0 278.5 823.6 279.5Q824.2 280.6 825.0 281.6Q825.9 282.7 826.9 283.9L826.9 283.9L840.4 300L835.5 300L824.4 286.9Q823.0 285.2 821.8 283.7Q820.5 282.2 819.8 280.7Q819.1 279.2 819.1 277.5L819.1 277.5Q819.1 275.5 820.0 273.9Q820.9 272.4 822.5 271.5Q824.2 270.6 826.4 270.6L826.4 270.6Q828.7 270.6 830.3 271.5Q831.9 272.3 832.8 273.8Q833.6 275.2 833.6 277.0L833.6 277.0Q833.6 279.0 832.6 280.6Q831.6 282.1 829.8 283.5L829.8 283.5L823.9 287.8Q822.2 289.0 821.6 290.3Q820.9 291.5 820.9 292.1L820.9 292.1Q820.9 293.4 821.5 294.5Q822.2 295.5 823.4 296.2Q824.5 296.8 826.1 296.8L826.1 296.8Q827.7 296.8 829.3 296.1Q830.8 295.4 832.1 294.1Q833.3 292.8 834.1 290.9Q834.8 289.1 834.8 286.8L834.8 286.8L838.6 286.8Q838.6 289.6 838.0 291.5Q837.4 293.5 836.5 294.7Q835.5 295.9 834.8 296.6L834.8 296.6Q834.5 296.8 834.3 297.0Q834.0 297.3 833.8 297.5L833.8 297.5Q832.3 299.0 830.2 299.7Q828.1 300.4 826.1 300.4ZM849.1 278.2L861.1 278.2L861.1 281.6L849.1 281.6L849.1 278.2ZM852.3 294.5L852.3 273.0L856.6 273.0L856.6 293.6Q856.6 295.1 857.2 295.8Q857.8 296.5 859.2 296.5L859.2 296.5Q859.5 296.5 859.9 296.4Q860.3 296.4 860.7 296.3L860.7 296.3L861.5 299.8Q860.8 300.1 860.1 300.2Q859.3 300.3 858.6 300.3L858.6 300.3Q855.7 300.3 854.0 298.7Q852.3 297.1 852.3 294.5L852.3 294.5ZM868.3 287.1L868.3 287.1L868.3 300L864.1 300L864.1 270.9L868.2 270.9L868.2 281.8L868.5 281.8Q869.3 280.0 870.9 278.9Q872.4 277.9 875.0 277.9L875.0 277.9Q877.2 277.9 878.9 278.8Q880.6 279.7 881.5 281.6Q882.5 283.4 882.5 286.1L882.5 286.1L882.5 300L878.2 300L878.2 286.6Q878.2 284.2 877.0 282.9Q875.7 281.6 873.5 281.6L873.5 281.6Q872.0 281.6 870.8 282.2Q869.7 282.9 869.0 284.1Q868.3 285.3 868.3 287.1ZM895.9 300.4L895.9 300.4Q892.7 300.4 890.4 299.1Q888.0 297.7 886.8 295.1Q885.5 292.6 885.5 289.2L885.5 289.2Q885.5 285.9 886.7 283.3Q888.0 280.8 890.2 279.3Q892.5 277.9 895.5 277.9L895.5 277.9Q897.4 277.9 899.1 278.5Q900.9 279.1 902.3 280.4Q903.7 281.7 904.5 283.8Q905.3 285.9 905.3 288.8L905.3 288.8L905.3 290.4L887.9 290.4L887.9 287.2L903.1 287.2L901.1 288.2Q901.1 286.2 900.5 284.7Q899.9 283.1 898.6 282.3Q897.4 281.4 895.5 281.4L895.5 281.4Q893.7 281.4 892.4 282.3Q891.1 283.2 890.4 284.6Q889.7 286.1 889.7 287.8L889.7 287.8L889.7 289.9Q889.7 292.2 890.5 293.8Q891.3 295.3 892.7 296.1Q894.1 297.0 896.0 297.0L896.0 297.0Q897.2 297.0 898.2 296.6Q899.1 296.3 899.9 295.5Q900.6 294.8 901.0 293.8L901.0 293.8L905.0 294.6Q904.5 296.3 903.3 297.7Q902.0 299.0 900.2 299.7Q898.3 300.4 895.9 300.4ZM912.5 300L908.2 300L908.2 278.2L912.3 278.2L912.3 281.8L912.6 281.8Q913.3 279.9 914.8 278.9Q916.4 277.9 918.5 277.9L918.5 277.9Q920.7 277.9 922.2 278.9Q923.7 279.9 924.4 281.8L924.4 281.8L924.6 281.8Q925.4 280.0 927.1 278.9Q928.8 277.9 931.1 277.9L931.1 277.9Q934.1 277.9 936.0 279.8Q937.9 281.6 937.9 285.4L937.9 285.4L937.9 300L933.6 300L933.6 285.8Q933.6 283.5 932.4 282.5Q931.2 281.6 929.5 281.6L929.5 281.6Q927.5 281.6 926.3 282.8Q925.2 284.1 925.2 286.1L925.2 286.1L925.2 300L920.9 300L920.9 285.5Q920.9 283.7 919.8 282.6Q918.7 281.6 917.0 281.6L917.0 281.6Q915.7 281.6 914.7 282.2Q913.7 282.8 913.1 284.0Q912.5 285.1 912.5 286.5L912.5 286.5L912.5 300ZM951.3 300.4L951.3 300.4Q948.1 300.4 945.8 299.1Q943.5 297.7 942.2 295.1Q940.9 292.6 940.9 289.2L940.9 289.2Q940.9 285.9 942.2 283.3Q943.4 280.8 945.7 279.3Q947.9 277.9 951.0 277.9L951.0 277.9Q952.8 277.9 954.6 278.5Q956.3 279.1 957.7 280.4Q959.1 281.7 959.9 283.8Q960.7 285.9 960.7 288.8L960.7 288.8L960.7 290.4L943.3 290.4L943.3 287.2L958.5 287.2L956.5 288.2Q956.5 286.2 955.9 284.7Q955.3 283.1 954.1 282.3Q952.8 281.4 951.0 281.4L951.0 281.4Q949.1 281.4 947.8 282.3Q946.5 283.2 945.9 284.6Q945.2 286.1 945.2 287.8L945.2 287.8L945.2 289.9Q945.2 292.2 946.0 293.8Q946.7 295.3 948.1 296.1Q949.5 297.0 951.4 297.0L951.4 297.0Q952.6 297.0 953.6 296.6Q954.6 296.3 955.3 295.5Q956.0 294.8 956.4 293.8L956.4 293.8L960.4 294.6Q959.9 296.3 958.7 297.7Q957.5 299.0 955.6 299.7Q953.7 300.4 951.3 300.4ZM988.9 283.5L988.9 283.5L985.1 284.2Q984.7 283.1 983.7 282.2Q982.7 281.3 980.7 281.3L980.7 281.3Q978.9 281.3 977.7 282.1Q976.5 282.9 976.5 284.1L976.5 284.1Q976.5 285.2 977.3 285.9Q978.1 286.6 979.9 287.0L979.9 287.0L983.4 287.8Q986.4 288.5 987.9 289.9Q989.3 291.4 989.3 293.7L989.3 293.7Q989.3 295.6 988.2 297.2Q987.1 298.7 985.1 299.6Q983.0 300.4 980.4 300.4L980.4 300.4Q976.7 300.4 974.4 298.9Q972.1 297.3 971.6 294.4L971.6 294.4L975.7 293.8Q976.1 295.4 977.3 296.2Q978.5 297.0 980.4 297.0L980.4 297.0Q982.5 297.0 983.7 296.2Q985.0 295.3 985.0 294.0L985.0 294.0Q985.0 292.0 981.9 291.2L981.9 291.2L978.2 290.4Q975.1 289.7 973.7 288.2Q972.2 286.7 972.2 284.4L972.2 284.4Q972.2 282.4 973.3 281.0Q974.4 279.5 976.3 278.7Q978.2 277.9 980.6 277.9L980.6 277.9Q984.2 277.9 986.2 279.4Q988.2 281.0 988.9 283.5ZM1006.1 291.0L1006.1 291.0L1006.1 278.2L1010.4 278.2L1010.4 300L1006.2 300L1006.2 296.2L1006.0 296.2Q1005.2 297.9 1003.6 299.1Q1001.9 300.3 999.5 300.3L999.5 300.3Q997.3 300.3 995.7 299.4Q994.1 298.4 993.2 296.6Q992.3 294.8 992.3 292.1L992.3 292.1L992.3 278.2L996.5 278.2L996.5 291.6Q996.5 293.8 997.8 295.1Q999.0 296.4 1001.0 296.4L1001.0 296.4Q1002.2 296.4 1003.4 295.8Q1004.6 295.2 1005.3 294.0Q1006.1 292.8 1006.1 291.0ZM1018.6 308.2L1014.4 308.2L1014.4 278.2L1018.5 278.2L1018.5 281.7L1018.9 281.7Q1019.3 281.0 1020.0 280.1Q1020.6 279.2 1021.9 278.6Q1023.1 277.9 1025.2 277.9L1025.2 277.9Q1027.8 277.9 1029.9 279.2Q1031.9 280.5 1033.1 283.1Q1034.3 285.6 1034.3 289.1L1034.3 289.1Q1034.3 292.7 1033.1 295.2Q1032.0 297.7 1029.9 299.1Q1027.8 300.4 1025.2 300.4L1025.2 300.4Q1023.2 300.4 1021.9 299.8Q1020.7 299.1 1020.0 298.2Q1019.3 297.3 1018.9 296.6L1018.9 296.6L1018.6 296.6L1018.6 308.2ZM1024.3 296.8L1024.3 296.8Q1026.2 296.8 1027.4 295.8Q1028.7 294.8 1029.3 293.0Q1030 291.3 1030 289.1L1030 289.1Q1030 286.9 1029.4 285.2Q1028.7 283.5 1027.4 282.5Q1026.2 281.5 1024.3 281.5L1024.3 281.5Q1022.4 281.5 1021.1 282.5Q1019.9 283.4 1019.2 285.1Q1018.6 286.8 1018.6 289.1L1018.6 289.1Q1018.6 291.4 1019.2 293.1Q1019.9 294.9 1021.2 295.8Q1022.4 296.8 1024.3 296.8ZM1041.6 308.2L1037.4 308.2L1037.4 278.2L1041.5 278.2L1041.5 281.7L1041.8 281.7Q1042.2 281.0 1042.9 280.1Q1043.6 279.2 1044.8 278.6Q1046.1 277.9 1048.1 277.9L1048.1 277.9Q1050.7 277.9 1052.8 279.2Q1054.9 280.5 1056.1 283.1Q1057.2 285.6 1057.2 289.1L1057.2 289.1Q1057.2 292.7 1056.1 295.2Q1054.9 297.7 1052.8 299.1Q1050.8 300.4 1048.1 300.4L1048.1 300.4Q1046.2 300.4 1044.9 299.8Q1043.6 299.1 1042.9 298.2Q1042.2 297.3 1041.8 296.6L1041.8 296.6L1041.6 296.6L1041.6 308.2ZM1047.2 296.8L1047.2 296.8Q1049.1 296.8 1050.4 295.8Q1051.6 294.8 1052.3 293.0Q1052.9 291.3 1052.9 289.1L1052.9 289.1Q1052.9 286.9 1052.3 285.2Q1051.7 283.5 1050.4 282.5Q1049.1 281.5 1047.2 281.5L1047.2 281.5Q1045.4 281.5 1044.1 282.5Q1042.8 283.4 1042.2 285.1Q1041.5 286.8 1041.5 289.1L1041.5 289.1Q1041.5 291.4 1042.2 293.1Q1042.8 294.9 1044.1 295.8Q1045.4 296.8 1047.2 296.8ZM1069.5 300.4L1069.5 300.4Q1066.4 300.4 1064.1 299.0Q1061.8 297.6 1060.6 295.1Q1059.3 292.6 1059.3 289.2L1059.3 289.2Q1059.3 285.8 1060.6 283.3Q1061.8 280.7 1064.1 279.3Q1066.4 277.9 1069.5 277.9L1069.5 277.9Q1072.6 277.9 1074.8 279.3Q1077.1 280.7 1078.4 283.3Q1079.7 285.8 1079.7 289.2L1079.7 289.2Q1079.7 292.6 1078.4 295.1Q1077.1 297.6 1074.8 299.0Q1072.6 300.4 1069.5 300.4ZM1069.5 296.9L1069.5 296.9Q1071.5 296.9 1072.8 295.8Q1074.1 294.8 1074.7 293.0Q1075.4 291.3 1075.4 289.2L1075.4 289.2Q1075.4 287.1 1074.7 285.3Q1074.1 283.6 1072.8 282.5Q1071.5 281.5 1069.5 281.5L1069.5 281.5Q1067.5 281.5 1066.2 282.5Q1064.9 283.6 1064.2 285.3Q1063.6 287.1 1063.6 289.2L1063.6 289.2Q1063.6 291.3 1064.2 293.0Q1064.9 294.8 1066.2 295.8Q1067.5 296.9 1069.5 296.9ZM1086.9 300L1082.7 300L1082.7 278.2L1086.8 278.2L1086.8 281.7L1087.0 281.7Q1087.6 279.9 1089.2 278.9Q1090.7 277.9 1092.6 277.9L1092.6 277.9Q1093.0 277.9 1093.5 277.9Q1094.0 277.9 1094.4 277.9L1094.4 277.9L1094.4 282.0Q1094.1 281.9 1093.5 281.9Q1092.8 281.8 1092.1 281.8L1092.1 281.8Q1090.6 281.8 1089.5 282.4Q1088.3 283.0 1087.6 284.2Q1086.9 285.3 1086.9 286.7L1086.9 286.7L1086.9 300ZM1094.6 278.2L1106.6 278.2L1106.6 281.6L1094.6 281.6L1094.6 278.2ZM1097.8 294.5L1097.8 273.0L1102.1 273.0L1102.1 293.6Q1102.1 295.1 1102.7 295.8Q1103.3 296.5 1104.7 296.5L1104.7 296.5Q1105.0 296.5 1105.4 296.4Q1105.8 296.4 1106.2 296.3L1106.2 296.3L1107.0 299.8Q1106.3 300.1 1105.6 300.2Q1104.8 300.3 1104.1 300.3L1104.1 300.3Q1101.2 300.3 1099.5 298.7Q1097.8 297.1 1097.8 294.5L1097.8 294.5ZM1112.2 307.2L1109.2 307.2L1110.9 295.8L1115.4 295.8L1112.2 307.2Z" fill="#3f5b78"></path>
  <path d="M568.4 352.5L568.4 352.5Q566.3 352.5 564.6 351.7Q562.9 350.9 562.0 349.4Q561.0 348.0 561.0 345.8L561.0 345.8Q561.0 344.0 561.7 342.8Q562.4 341.6 563.6 340.9Q564.8 340.2 566.3 339.9Q567.8 339.5 569.4 339.3L569.4 339.3Q571.3 339.1 572.5 338.9Q573.8 338.8 574.3 338.4Q574.9 338.1 574.9 337.3L574.9 337.3L574.9 337.2Q574.9 335.4 573.8 334.4Q572.8 333.3 570.7 333.3L570.7 333.3Q568.6 333.3 567.4 334.3Q566.1 335.2 565.6 336.4L565.6 336.4L561.6 335.5Q562.4 333.5 563.7 332.2Q565.1 331.0 566.9 330.5Q568.7 329.9 570.6 329.9L570.6 329.9Q572.0 329.9 573.4 330.2Q574.9 330.5 576.2 331.3Q577.5 332.1 578.3 333.6Q579.1 335.1 579.1 337.5L579.1 337.5L579.1 352L575.0 352L575.0 349.0L574.8 349.0Q574.4 349.8 573.6 350.6Q572.8 351.4 571.5 351.9Q570.2 352.5 568.4 352.5ZM569.3 349.1L569.3 349.1Q571.1 349.1 572.3 348.4Q573.6 347.7 574.2 346.6Q574.9 345.4 574.9 344.1L574.9 344.1L574.9 341.3Q574.6 341.5 574.0 341.7Q573.4 341.9 572.5 342.1Q571.7 342.2 570.9 342.3Q570.2 342.4 569.6 342.5L569.6 342.5Q568.4 342.6 567.4 343.0Q566.4 343.4 565.8 344.1Q565.1 344.8 565.1 345.9L565.1 345.9Q565.1 347.5 566.3 348.3Q567.5 349.1 569.3 349.1ZM592.3 360.6L592.3 360.6Q588.4 360.6 586.1 359.2Q583.9 357.7 583.0 355.7L583.0 355.7L586.7 354.2Q587.1 354.8 587.7 355.5Q588.4 356.2 589.5 356.7Q590.6 357.2 592.3 357.2L592.3 357.2Q594.7 357.2 596.3 356.0Q597.9 354.9 597.9 352.3L597.9 352.3L597.9 348.0L597.6 348.0Q597.3 348.7 596.5 349.6Q595.8 350.4 594.6 351.0Q593.3 351.7 591.3 351.7L591.3 351.7Q588.7 351.7 586.7 350.4Q584.6 349.2 583.4 346.9Q582.2 344.5 582.2 341.0L582.2 341.0Q582.2 337.5 583.4 335.0Q584.6 332.5 586.6 331.2Q588.7 329.9 591.3 329.9L591.3 329.9Q593.4 329.9 594.6 330.6Q595.9 331.2 596.6 332.1Q597.3 333.0 597.7 333.7L597.7 333.7L598.0 333.7L598.0 330.2L602.1 330.2L602.1 352.5Q602.1 355.3 600.8 357.1Q599.5 358.9 597.3 359.8Q595.1 360.6 592.3 360.6ZM592.2 348.1L592.2 348.1Q595 348.1 596.5 346.2Q597.9 344.3 597.9 340.9L597.9 340.9Q597.9 338.7 597.3 337.1Q596.7 335.4 595.4 334.5Q594.1 333.5 592.2 333.5L592.2 333.5Q590.3 333.5 589.1 334.5Q587.8 335.5 587.1 337.2Q586.5 338.9 586.5 340.9L586.5 340.9Q586.5 343.1 587.1 344.7Q587.8 346.3 589.1 347.2Q590.4 348.1 592.2 348.1ZM615.3 360.6L615.3 360.6Q611.4 360.6 609.1 359.2Q606.9 357.7 606.0 355.7L606.0 355.7L609.6 354.2Q610.0 354.8 610.7 355.5Q611.3 356.2 612.5 356.7Q613.6 357.2 615.3 357.2L615.3 357.2Q617.7 357.2 619.3 356.0Q620.9 354.9 620.9 352.3L620.9 352.3L620.9 348.0L620.6 348.0Q620.3 348.7 619.5 349.6Q618.8 350.4 617.6 351.0Q616.3 351.7 614.3 351.7L614.3 351.7Q611.7 351.7 609.7 350.4Q607.6 349.2 606.4 346.9Q605.2 344.5 605.2 341.0L605.2 341.0Q605.2 337.5 606.4 335.0Q607.6 332.5 609.6 331.2Q611.7 329.9 614.3 329.9L614.3 329.9Q616.4 329.9 617.6 330.6Q618.9 331.2 619.6 332.1Q620.3 333.0 620.7 333.7L620.7 333.7L621.0 333.7L621.0 330.2L625.1 330.2L625.1 352.5Q625.1 355.3 623.8 357.1Q622.5 358.9 620.3 359.8Q618.1 360.6 615.3 360.6ZM615.2 348.1L615.2 348.1Q618.0 348.1 619.5 346.2Q620.9 344.3 620.9 340.9L620.9 340.9Q620.9 338.7 620.3 337.1Q619.6 335.4 618.4 334.5Q617.1 333.5 615.2 333.5L615.2 333.5Q613.3 333.5 612.0 334.5Q610.8 335.5 610.1 337.2Q609.5 338.9 609.5 340.9L609.5 340.9Q609.5 343.1 610.1 344.7Q610.8 346.3 612.1 347.2Q613.4 348.1 615.2 348.1ZM633.4 352L629.2 352L629.2 330.2L633.2 330.2L633.2 333.7L633.5 333.7Q634.1 331.9 635.6 330.9Q637.1 329.9 639.0 329.9L639.0 329.9Q639.4 329.9 640.0 329.9Q640.5 329.9 640.8 329.9L640.8 329.9L640.8 334.0Q640.6 333.9 639.9 333.9Q639.3 333.8 638.6 333.8L638.6 333.8Q637.1 333.8 635.9 334.4Q634.7 335.0 634.1 336.2Q633.4 337.3 633.4 338.7L633.4 338.7L633.4 352ZM652.2 352.4L652.2 352.4Q649.0 352.4 646.7 351.1Q644.4 349.7 643.1 347.1Q641.8 344.6 641.8 341.2L641.8 341.2Q641.8 337.9 643.1 335.3Q644.3 332.8 646.6 331.3Q648.8 329.9 651.9 329.9L651.9 329.9Q653.7 329.9 655.5 330.5Q657.2 331.1 658.6 332.4Q660.0 333.7 660.8 335.8Q661.6 337.9 661.6 340.8L661.6 340.8L661.6 342.4L644.2 342.4L644.2 339.2L659.4 339.2L657.4 340.2Q657.4 338.2 656.8 336.7Q656.2 335.1 655.0 334.3Q653.7 333.4 651.9 333.4L651.9 333.4Q650.0 333.4 648.7 334.3Q647.4 335.2 646.8 336.6Q646.1 338.1 646.1 339.8L646.1 339.8L646.1 341.9Q646.1 344.2 646.9 345.8Q647.6 347.3 649.0 348.1Q650.4 349.0 652.3 349.0L652.3 349.0Q653.5 349.0 654.5 348.6Q655.5 348.3 656.2 347.5Q656.9 346.8 657.3 345.8L657.3 345.8L661.3 346.6Q660.8 348.3 659.6 349.7Q658.4 351.0 656.5 351.7Q654.6 352.4 652.2 352.4ZM673.7 360.6L673.7 360.6Q669.8 360.6 667.5 359.2Q665.3 357.7 664.4 355.7L664.4 355.7L668.0 354.2Q668.4 354.8 669.1 355.5Q669.7 356.2 670.9 356.7Q672.0 357.2 673.7 357.2L673.7 357.2Q676.1 357.2 677.7 356.0Q679.3 354.9 679.3 352.3L679.3 352.3L679.3 348.0L679.0 348.0Q678.7 348.7 677.9 349.6Q677.2 350.4 676.0 351.0Q674.7 351.7 672.7 351.7L672.7 351.7Q670.1 351.7 668.1 350.4Q666.0 349.2 664.8 346.9Q663.6 344.5 663.6 341.0L663.6 341.0Q663.6 337.5 664.8 335.0Q666.0 332.5 668.0 331.2Q670.1 329.9 672.7 329.9L672.7 329.9Q674.8 329.9 676.0 330.6Q677.3 331.2 678.0 332.1Q678.7 333.0 679.1 333.7L679.1 333.7L679.4 333.7L679.4 330.2L683.5 330.2L683.5 352.5Q683.5 355.3 682.2 357.1Q680.9 358.9 678.7 359.8Q676.5 360.6 673.7 360.6ZM673.6 348.1L673.6 348.1Q676.4 348.1 677.9 346.2Q679.3 344.3 679.3 340.9L679.3 340.9Q679.3 338.7 678.7 337.1Q678.0 335.4 676.8 334.5Q675.5 333.5 673.6 333.5L673.6 333.5Q671.7 333.5 670.4 334.5Q669.2 335.5 668.5 337.2Q667.9 338.9 667.9 340.9L667.9 340.9Q667.9 343.1 668.5 344.7Q669.2 346.3 670.5 347.2Q671.8 348.1 673.6 348.1ZM693.9 352.5L693.9 352.5Q691.8 352.5 690.1 351.7Q688.5 350.9 687.5 349.4Q686.5 348.0 686.5 345.8L686.5 345.8Q686.5 344.0 687.2 342.8Q687.9 341.6 689.1 340.9Q690.4 340.2 691.8 339.9Q693.3 339.5 694.9 339.3L694.9 339.3Q696.9 339.1 698.1 338.9Q699.3 338.8 699.8 338.4Q700.4 338.1 700.4 337.3L700.4 337.3L700.4 337.2Q700.4 335.4 699.3 334.4Q698.3 333.3 696.3 333.3L696.3 333.3Q694.1 333.3 692.9 334.3Q691.6 335.2 691.2 336.4L691.2 336.4L687.2 335.5Q687.9 333.5 689.3 332.2Q690.6 331.0 692.4 330.5Q694.2 329.9 696.2 329.9L696.2 329.9Q697.5 329.9 698.9 330.2Q700.4 330.5 701.7 331.3Q703.0 332.1 703.8 333.6Q704.6 335.1 704.6 337.5L704.6 337.5L704.6 352L700.5 352L700.5 349.0L700.3 349.0Q699.9 349.8 699.1 350.6Q698.3 351.4 697.0 351.9Q695.7 352.5 693.9 352.5ZM694.8 349.1L694.8 349.1Q696.6 349.1 697.8 348.4Q699.1 347.7 699.7 346.6Q700.4 345.4 700.4 344.1L700.4 344.1L700.4 341.3Q700.2 341.5 699.5 341.7Q698.9 341.9 698.1 342.1Q697.2 342.2 696.5 342.3Q695.7 342.4 695.2 342.5L695.2 342.5Q693.9 342.6 692.9 343.0Q691.9 343.4 691.3 344.1Q690.7 344.8 690.7 345.9L690.7 345.9Q690.7 347.5 691.8 348.3Q693.0 349.1 694.8 349.1ZM707.0 330.2L718.9 330.2L718.9 333.6L707.0 333.6L707.0 330.2ZM710.1 346.5L710.1 325.0L714.4 325.0L714.4 345.6Q714.4 347.1 715 347.8Q715.6 348.5 717.0 348.5L717.0 348.5Q717.3 348.5 717.7 348.4Q718.1 348.4 718.5 348.3L718.5 348.3L719.3 351.8Q718.7 352.1 717.9 352.2Q717.1 352.3 716.4 352.3L716.4 352.3Q713.5 352.3 711.8 350.7Q710.1 349.1 710.1 346.5L710.1 346.5ZM731.3 352.4L731.3 352.4Q728.1 352.4 725.7 351.1Q723.4 349.7 722.1 347.1Q720.9 344.6 720.9 341.2L720.9 341.2Q720.9 337.9 722.1 335.3Q723.4 332.8 725.6 331.3Q727.9 329.9 730.9 329.9L730.9 329.9Q732.8 329.9 734.5 330.5Q736.3 331.1 737.6 332.4Q739.0 333.7 739.8 335.8Q740.6 337.9 740.6 340.8L740.6 340.8L740.6 342.4L723.3 342.4L723.3 339.2L738.5 339.2L736.5 340.2Q736.5 338.2 735.9 336.7Q735.2 335.1 734.0 334.3Q732.8 333.4 730.9 333.4L730.9 333.4Q729.1 333.4 727.8 334.3Q726.5 335.2 725.8 336.6Q725.1 338.1 725.1 339.8L725.1 339.8L725.1 341.9Q725.1 344.2 725.9 345.8Q726.7 347.3 728.1 348.1Q729.5 349.0 731.3 349.0L731.3 349.0Q732.5 349.0 733.5 348.6Q734.5 348.3 735.2 347.5Q736.0 346.8 736.3 345.8L736.3 345.8L740.4 346.6Q739.9 348.3 738.6 349.7Q737.4 351.0 735.5 351.7Q733.7 352.4 731.3 352.4ZM751.7 352.4L751.7 352.4Q749.1 352.4 747.0 351.1Q744.9 349.7 743.8 347.2Q742.6 344.7 742.6 341.1L742.6 341.1Q742.6 337.6 743.8 335.1Q745.0 332.5 747.1 331.2Q749.1 329.9 751.7 329.9L751.7 329.9Q753.8 329.9 755.0 330.6Q756.3 331.2 757.0 332.1Q757.7 333.0 758.0 333.7L758.0 333.7L758.3 333.7L758.3 322.9L762.5 322.9L762.5 352L758.4 352L758.4 348.6L758.0 348.6Q757.7 349.3 756.9 350.2Q756.2 351.1 755.0 351.8Q753.7 352.4 751.7 352.4ZM752.7 348.8L752.7 348.8Q754.5 348.8 755.8 347.8Q757.0 346.9 757.7 345.1Q758.3 343.4 758.3 341.1L758.3 341.1Q758.3 338.8 757.7 337.1Q757.1 335.4 755.8 334.5Q754.5 333.5 752.7 333.5L752.7 333.5Q750.7 333.5 749.5 334.5Q748.2 335.5 747.6 337.2Q746.9 338.9 746.9 341.1L746.9 341.1Q746.9 343.3 747.6 345.0Q748.2 346.8 749.5 347.8Q750.8 348.8 752.7 348.8ZM784.6 352.4L784.6 352.4Q781.6 352.4 779.3 351.0Q777.0 349.6 775.7 347.1Q774.5 344.6 774.5 341.2L774.5 341.2Q774.5 337.8 775.7 335.3Q777.0 332.7 779.3 331.3Q781.6 329.9 784.6 329.9L784.6 329.9Q787.7 329.9 790 331.3Q792.3 332.7 793.6 335.3Q794.8 337.8 794.8 341.2L794.8 341.2Q794.8 344.6 793.6 347.1Q792.3 349.6 790 351.0Q787.7 352.4 784.6 352.4ZM784.6 348.9L784.6 348.9Q786.6 348.9 787.9 347.8Q789.3 346.8 789.9 345.0Q790.5 343.3 790.5 341.2L790.5 341.2Q790.5 339.1 789.9 337.3Q789.3 335.6 787.9 334.5Q786.6 333.5 784.6 333.5L784.6 333.5Q782.6 333.5 781.3 334.5Q780.0 335.6 779.4 337.3Q778.8 339.1 778.8 341.2L778.8 341.2Q778.8 343.3 779.4 345.0Q780.0 346.8 781.3 347.8Q782.6 348.9 784.6 348.9ZM802.1 339.1L802.1 339.1L802.1 352L797.9 352L797.9 330.2L802.0 330.2L802.0 333.8L802.3 333.8Q803.0 332.0 804.6 330.9Q806.2 329.9 808.7 329.9L808.7 329.9Q810.9 329.9 812.5 330.8Q814.2 331.7 815.1 333.6Q816.1 335.4 816.1 338.1L816.1 338.1L816.1 352L811.9 352L811.9 338.6Q811.9 336.3 810.6 334.9Q809.4 333.6 807.2 333.6L807.2 333.6Q805.7 333.6 804.6 334.2Q803.4 334.9 802.8 336.1Q802.1 337.3 802.1 339.1ZM838.2 352.4L838.2 352.4Q835.1 352.4 832.8 351.0Q830.5 349.6 829.3 347.1Q828.0 344.6 828.0 341.2L828.0 341.2Q828.0 337.8 829.3 335.3Q830.5 332.7 832.8 331.3Q835.1 329.9 838.2 329.9L838.2 329.9Q841.3 329.9 843.6 331.3Q845.9 332.7 847.1 335.3Q848.4 337.8 848.4 341.2L848.4 341.2Q848.4 344.6 847.1 347.1Q845.9 349.6 843.6 351.0Q841.3 352.4 838.2 352.4ZM838.2 348.9L838.2 348.9Q840.2 348.9 841.5 347.8Q842.8 346.8 843.5 345.0Q844.1 343.3 844.1 341.2L844.1 341.2Q844.1 339.1 843.5 337.3Q842.8 335.6 841.5 334.5Q840.2 333.5 838.2 333.5L838.2 333.5Q836.2 333.5 834.9 334.5Q833.6 335.6 833.0 337.3Q832.3 339.1 832.3 341.2L832.3 341.2Q832.3 343.3 833.0 345.0Q833.6 346.8 834.9 347.8Q836.2 348.9 838.2 348.9ZM855.7 339.1L855.7 339.1L855.7 352L851.4 352L851.4 330.2L855.5 330.2L855.5 333.8L855.8 333.8Q856.6 332.0 858.2 330.9Q859.7 329.9 862.2 329.9L862.2 329.9Q864.5 329.9 866.1 330.8Q867.8 331.7 868.7 333.6Q869.6 335.4 869.6 338.1L869.6 338.1L869.6 352L865.4 352L865.4 338.6Q865.4 336.3 864.2 334.9Q862.9 333.6 860.8 333.6L860.8 333.6Q859.3 333.6 858.2 334.2Q857.0 334.9 856.3 336.1Q855.7 337.3 855.7 339.1ZM883.1 352.4L883.1 352.4Q879.9 352.4 877.6 351.1Q875.2 349.7 874.0 347.1Q872.7 344.6 872.7 341.2L872.7 341.2Q872.7 337.9 873.9 335.3Q875.2 332.8 877.4 331.3Q879.7 329.9 882.7 329.9L882.7 329.9Q884.6 329.9 886.3 330.5Q888.1 331.1 889.5 332.4Q890.8 333.7 891.7 335.8Q892.5 337.9 892.5 340.8L892.5 340.8L892.5 342.4L875.1 342.4L875.1 339.2L890.3 339.2L888.3 340.2Q888.3 338.2 887.7 336.7Q887.1 335.1 885.8 334.3Q884.6 333.4 882.7 333.4L882.7 333.4Q880.9 333.4 879.6 334.3Q878.3 335.2 877.6 336.6Q876.9 338.1 876.9 339.8L876.9 339.8L876.9 341.9Q876.9 344.2 877.7 345.8Q878.5 347.3 879.9 348.1Q881.3 349.0 883.1 349.0L883.1 349.0Q884.4 349.0 885.3 348.6Q886.3 348.3 887.1 347.5Q887.8 346.8 888.1 345.8L888.1 345.8L892.2 346.6Q891.7 348.3 890.4 349.7Q889.2 351.0 887.4 351.7Q885.5 352.4 883.1 352.4ZM912.5 352.4L912.5 352.4Q909.8 352.4 907.7 351.1Q905.7 349.7 904.5 347.2Q903.3 344.7 903.3 341.1L903.3 341.1Q903.3 337.6 904.5 335.1Q905.7 332.5 907.8 331.2Q909.8 329.9 912.5 329.9L912.5 329.9Q914.5 329.9 915.8 330.6Q917.0 331.2 917.7 332.1Q918.4 333.0 918.8 333.7L918.8 333.7L919.0 333.7L919.0 322.9L923.2 322.9L923.2 352L919.1 352L919.1 348.6L918.8 348.6Q918.4 349.3 917.7 350.2Q916.9 351.1 915.7 351.8Q914.5 352.4 912.5 352.4ZM913.4 348.8L913.4 348.8Q915.2 348.8 916.5 347.8Q917.8 346.9 918.4 345.1Q919.1 343.4 919.1 341.1L919.1 341.1Q919.1 338.8 918.4 337.1Q917.8 335.4 916.5 334.5Q915.2 333.5 913.4 333.5L913.4 333.5Q911.5 333.5 910.2 334.5Q908.9 335.5 908.3 337.2Q907.6 338.9 907.6 341.1L907.6 341.1Q907.6 343.3 908.3 345.0Q908.9 346.8 910.2 347.8Q911.5 348.8 913.4 348.8ZM933.6 352.5L933.6 352.5Q931.5 352.5 929.9 351.7Q928.2 350.9 927.2 349.4Q926.2 348.0 926.2 345.8L926.2 345.8Q926.2 344.0 926.9 342.8Q927.7 341.6 928.9 340.9Q930.1 340.2 931.6 339.9Q933.0 339.5 934.6 339.3L934.6 339.3Q936.6 339.1 937.8 338.9Q939.0 338.8 939.6 338.4Q940.1 338.1 940.1 337.3L940.1 337.3L940.1 337.2Q940.1 335.4 939.1 334.4Q938.0 333.3 936.0 333.3L936.0 333.3Q933.8 333.3 932.6 334.3Q931.4 335.2 930.9 336.4L930.9 336.4L926.9 335.5Q927.6 333.5 929.0 332.2Q930.4 331.0 932.2 330.5Q933.9 329.9 935.9 329.9L935.9 329.9Q937.2 329.9 938.7 330.2Q940.1 330.5 941.4 331.3Q942.7 332.1 943.6 333.6Q944.4 335.1 944.4 337.5L944.4 337.5L944.4 352L940.2 352L940.2 349.0L940.1 349.0Q939.7 349.8 938.8 350.6Q938.0 351.4 936.7 351.9Q935.4 352.5 933.6 352.5ZM934.5 349.1L934.5 349.1Q936.3 349.1 937.6 348.4Q938.8 347.7 939.5 346.6Q940.1 345.4 940.1 344.1L940.1 344.1L940.1 341.3Q939.9 341.5 939.3 341.7Q938.6 341.9 937.8 342.1Q937.0 342.2 936.2 342.3Q935.4 342.4 934.9 342.5L934.9 342.5Q933.7 342.6 932.6 343.0Q931.6 343.4 931.0 344.1Q930.4 344.8 930.4 345.9L930.4 345.9Q930.4 347.5 931.6 348.3Q932.7 349.1 934.5 349.1ZM964.8 335.5L964.8 335.5L960.9 336.2Q960.5 335.1 959.5 334.2Q958.5 333.3 956.5 333.3L956.5 333.3Q954.7 333.3 953.5 334.1Q952.3 334.9 952.3 336.1L952.3 336.1Q952.3 337.2 953.2 337.9Q954.0 338.6 955.7 339.0L955.7 339.0L959.2 339.8Q962.2 340.5 963.7 341.9Q965.2 343.4 965.2 345.7L965.2 345.7Q965.2 347.6 964.1 349.2Q962.9 350.7 960.9 351.6Q958.9 352.4 956.3 352.4L956.3 352.4Q952.6 352.4 950.3 350.9Q948.0 349.3 947.5 346.4L947.5 346.4L951.5 345.8Q951.9 347.4 953.1 348.2Q954.3 349.0 956.3 349.0L956.3 349.0Q958.3 349.0 959.6 348.2Q960.8 347.3 960.8 346.0L960.8 346.0Q960.8 344.0 957.8 343.2L957.8 343.2L954.1 342.4Q951.0 341.7 949.5 340.2Q948.1 338.7 948.1 336.4L948.1 336.4Q948.1 334.4 949.2 333.0Q950.3 331.5 952.2 330.7Q954.1 329.9 956.5 329.9L956.5 329.9Q960.1 329.9 962.1 331.4Q964.1 333.0 964.8 335.5ZM972.4 339.1L972.4 339.1L972.4 352L968.2 352L968.2 322.9L972.3 322.9L972.3 333.8L972.6 333.8Q973.4 332.0 975.0 330.9Q976.5 329.9 979.1 329.9L979.1 329.9Q981.3 329.9 983.0 330.8Q984.7 331.7 985.6 333.6Q986.6 335.4 986.6 338.1L986.6 338.1L986.6 352L982.3 352L982.3 338.6Q982.3 336.2 981.1 334.9Q979.8 333.6 977.6 333.6L977.6 333.6Q976.1 333.6 974.9 334.2Q973.8 334.9 973.1 336.1Q972.4 337.3 972.4 339.1ZM1001.4 352.4L1001.4 352.4Q999.4 352.4 998.1 351.8Q996.9 351.1 996.2 350.2Q995.4 349.3 995.1 348.6L995.1 348.6L994.7 348.6L994.7 352L990.6 352L990.6 322.9L994.8 322.9L994.8 333.7L995.1 333.7Q995.4 333.0 996.1 332.1Q996.8 331.2 998.1 330.6Q999.3 329.9 1001.3 329.9L1001.3 329.9Q1004.0 329.9 1006.0 331.2Q1008.1 332.5 1009.3 335.1Q1010.5 337.6 1010.5 341.1L1010.5 341.1Q1010.5 344.7 1009.3 347.2Q1008.1 349.7 1006.1 351.1Q1004.0 352.4 1001.4 352.4ZM1000.4 348.8L1000.4 348.8Q1002.3 348.8 1003.6 347.8Q1004.9 346.8 1005.5 345.0Q1006.2 343.3 1006.2 341.1L1006.2 341.1Q1006.2 338.9 1005.5 337.2Q1004.9 335.5 1003.6 334.5Q1002.4 333.5 1000.4 333.5L1000.4 333.5Q998.6 333.5 997.3 334.5Q996.1 335.4 995.4 337.1Q994.7 338.8 994.7 341.1L994.7 341.1Q994.7 343.4 995.4 345.1Q996.1 346.9 997.4 347.8Q998.6 348.8 1000.4 348.8ZM1022.7 352.4L1022.7 352.4Q1019.6 352.4 1017.4 351.0Q1015.1 349.6 1013.8 347.1Q1012.5 344.6 1012.5 341.2L1012.5 341.2Q1012.5 337.8 1013.8 335.3Q1015.1 332.7 1017.4 331.3Q1019.6 329.9 1022.7 329.9L1022.7 329.9Q1025.8 329.9 1028.1 331.3Q1030.4 332.7 1031.6 335.3Q1032.9 337.8 1032.9 341.2L1032.9 341.2Q1032.9 344.6 1031.6 347.1Q1030.4 349.6 1028.1 351.0Q1025.8 352.4 1022.7 352.4ZM1022.7 348.9L1022.7 348.9Q1024.7 348.9 1026.0 347.8Q1027.3 346.8 1028.0 345.0Q1028.6 343.3 1028.6 341.2L1028.6 341.2Q1028.6 339.1 1028.0 337.3Q1027.3 335.6 1026.0 334.5Q1024.7 333.5 1022.7 333.5L1022.7 333.5Q1020.7 333.5 1019.4 334.5Q1018.1 335.6 1017.5 337.3Q1016.8 339.1 1016.8 341.2L1016.8 341.2Q1016.8 343.3 1017.5 345.0Q1018.1 346.8 1019.4 347.8Q1020.7 348.9 1022.7 348.9ZM1042.3 352.5L1042.3 352.5Q1040.2 352.5 1038.5 351.7Q1036.9 350.9 1035.9 349.4Q1034.9 348.0 1034.9 345.8L1034.9 345.8Q1034.9 344.0 1035.6 342.8Q1036.3 341.6 1037.5 340.9Q1038.8 340.2 1040.2 339.9Q1041.7 339.5 1043.3 339.3L1043.3 339.3Q1045.3 339.1 1046.5 338.9Q1047.7 338.8 1048.2 338.4Q1048.8 338.1 1048.8 337.3L1048.8 337.3L1048.8 337.2Q1048.8 335.4 1047.7 334.4Q1046.7 333.3 1044.6 333.3L1044.6 333.3Q1042.5 333.3 1041.3 334.3Q1040.0 335.2 1039.6 336.4L1039.6 336.4L1035.6 335.5Q1036.3 333.5 1037.7 332.2Q1039.0 331.0 1040.8 330.5Q1042.6 329.9 1044.6 329.9L1044.6 329.9Q1045.9 329.9 1047.3 330.2Q1048.8 330.5 1050.1 331.3Q1051.4 332.1 1052.2 333.6Q1053.0 335.1 1053.0 337.5L1053.0 337.5L1053.0 352L1048.9 352L1048.9 349.0L1048.7 349.0Q1048.3 349.8 1047.5 350.6Q1046.7 351.4 1045.4 351.9Q1044.1 352.5 1042.3 352.5ZM1043.2 349.1L1043.2 349.1Q1045.0 349.1 1046.2 348.4Q1047.5 347.7 1048.1 346.6Q1048.8 345.4 1048.8 344.1L1048.8 344.1L1048.8 341.3Q1048.6 341.5 1047.9 341.7Q1047.3 341.9 1046.5 342.1Q1045.6 342.2 1044.9 342.3Q1044.1 342.4 1043.6 342.5L1043.6 342.5Q1042.3 342.6 1041.3 343.0Q1040.3 343.4 1039.7 344.1Q1039.1 344.8 1039.1 345.9L1039.1 345.9Q1039.1 347.5 1040.2 348.3Q1041.4 349.1 1043.2 349.1ZM1061.3 352L1057.1 352L1057.1 330.2L1061.2 330.2L1061.2 333.7L1061.4 333.7Q1062.0 331.9 1063.5 330.9Q1065.1 329.9 1067.0 329.9L1067.0 329.9Q1067.4 329.9 1067.9 329.9Q1068.4 329.9 1068.8 329.9L1068.8 329.9L1068.8 334.0Q1068.5 333.9 1067.9 333.9Q1067.2 333.8 1066.5 333.8L1066.5 333.8Q1065.0 333.8 1063.9 334.4Q1062.7 335.0 1062.0 336.2Q1061.3 337.3 1061.3 338.7L1061.3 338.7L1061.3 352ZM1078.9 352.4L1078.9 352.4Q1076.3 352.4 1074.2 351.1Q1072.1 349.7 1071.0 347.2Q1069.8 344.7 1069.8 341.1L1069.8 341.1Q1069.8 337.6 1071.0 335.1Q1072.2 332.5 1074.2 331.2Q1076.3 329.9 1078.9 329.9L1078.9 329.9Q1081.0 329.9 1082.2 330.6Q1083.5 331.2 1084.2 332.1Q1084.8 333.0 1085.2 333.7L1085.2 333.7L1085.5 333.7L1085.5 322.9L1089.7 322.9L1089.7 352L1085.6 352L1085.6 348.6L1085.2 348.6Q1084.8 349.3 1084.1 350.2Q1083.4 351.1 1082.2 351.8Q1080.9 352.4 1078.9 352.4ZM1079.8 348.8L1079.8 348.8Q1081.7 348.8 1082.9 347.8Q1084.2 346.9 1084.9 345.1Q1085.5 343.4 1085.5 341.1L1085.5 341.1Q1085.5 338.8 1084.9 337.1Q1084.2 335.4 1083.0 334.5Q1081.7 333.5 1079.8 333.5L1079.8 333.5Q1077.9 333.5 1076.7 334.5Q1075.4 335.5 1074.7 337.2Q1074.1 338.9 1074.1 341.1L1074.1 341.1Q1074.1 343.3 1074.7 345.0Q1075.4 346.8 1076.7 347.8Q1077.9 348.8 1079.8 348.8ZM1096.9 352.3L1096.9 352.3Q1095.7 352.3 1094.9 351.5Q1094.1 350.6 1094.1 349.4L1094.1 349.4Q1094.1 348.3 1094.9 347.4Q1095.7 346.6 1096.9 346.6L1096.9 346.6Q1098.1 346.6 1098.9 347.4Q1099.8 348.3 1099.8 349.4L1099.8 349.4Q1099.8 350.6 1098.9 351.5Q1098.1 352.3 1096.9 352.3Z" fill="#3f5b78"></path>
</svg>